<svg width="22" height="23" viewBox="0 0 22 23" fill="none" xmlns="http://www.w3.org/2000/svg">
<path d="M2.22754 4.60331V2.6811C2.22754 2.12881 1.77982 1.6811 1.22754 1.6811C0.675254 1.6811 0.227539 2.12881 0.227539 2.6811V8.48695H6.0334C6.58568 8.48695 7.0334 8.03924 7.0334 7.48695C7.0334 6.93467 6.58568 6.48695 6.0334 6.48695H3.31389C4.9172 4.13531 7.6395 2.58594 10.732 2.58594C15.6773 2.58594 19.6654 6.54337 19.6654 11.3997C19.6654 16.256 15.6773 20.2134 10.732 20.2134C7.57277 20.2134 4.80001 18.5967 3.21135 16.1585L1.53566 17.2503C3.48175 20.2371 6.87545 22.2134 10.732 22.2134C16.7589 22.2134 21.6654 17.3833 21.6654 11.3997C21.6654 5.41602 16.7589 0.585938 10.732 0.585938C7.29889 0.585938 4.23267 2.15182 2.22754 4.60331Z" fill="#4CA2FF"/>
<path d="M10.1448 11.939C10.1155 11.8587 10.0995 11.7721 10.0995 11.6817V5.37316C10.0995 4.95895 10.4353 4.62316 10.8495 4.62316C11.2637 4.62316 11.5995 4.95895 11.5995 5.37316V11.3711L14.5341 14.3057C14.827 14.5986 14.827 15.0734 14.5341 15.3663C14.2412 15.6592 13.7663 15.6592 13.4735 15.3663L10.3192 12.2121C10.2393 12.1322 10.1811 12.0387 10.1448 11.939Z" fill="#4CA2FF"/>
</svg>
