<svg width="22" height="23" viewBox="0 0 22 23" fill="none" xmlns="http://www.w3.org/2000/svg">
<path d="M2.22754 4.64482V2.7226C2.22754 2.17032 1.77982 1.7226 1.22754 1.7226C0.675254 1.7226 0.227539 2.17032 0.227539 2.7226V8.52846H6.0334C6.58568 8.52846 7.0334 8.08074 7.0334 7.52846C7.0334 6.97617 6.58568 6.52846 6.0334 6.52846H3.31389C4.9172 4.17681 7.6395 2.62744 10.732 2.62744C15.6773 2.62744 19.6654 6.58487 19.6654 11.4412C19.6654 16.2975 15.6773 20.2549 10.732 20.2549C7.57277 20.2549 4.80001 18.6382 3.21135 16.2L1.53566 17.2918C3.48175 20.2786 6.87545 22.2549 10.732 22.2549C16.7589 22.2549 21.6654 17.4248 21.6654 11.4412C21.6654 5.45753 16.7589 0.627441 10.732 0.627441C7.29889 0.627441 4.23267 2.19333 2.22754 4.64482Z" fill="#011829" fill-opacity="0.6"/>
<path d="M10.1448 11.9805C10.1155 11.9002 10.0995 11.8136 10.0995 11.7232V5.41466C10.0995 5.00045 10.4353 4.66466 10.8495 4.66466C11.2637 4.66466 11.5995 5.00045 11.5995 5.41466V11.4126L14.5341 14.3472C14.827 14.6401 14.827 15.115 14.5341 15.4078C14.2412 15.7007 13.7663 15.7007 13.4735 15.4078L10.3192 12.2536C10.2393 12.1737 10.1811 12.0802 10.1448 11.9805Z" fill="#011829" fill-opacity="0.6"/>
</svg>
