<svg width="21" height="21" viewBox="0 0 21 21" fill="none" xmlns="http://www.w3.org/2000/svg">
<path fill-rule="evenodd" clip-rule="evenodd" d="M0.227539 5.58594C0.227539 2.82451 2.46612 0.585938 5.22754 0.585938H15.2758C18.0372 0.585938 20.2758 2.82451 20.2758 5.58594V15.6342C20.2758 18.3956 18.0372 20.6342 15.2758 20.6342H5.22754C2.46611 20.6342 0.227539 18.3956 0.227539 15.6342V5.58594ZM5.22754 2.58594H15.2758C16.9326 2.58594 18.2758 3.92908 18.2758 5.58594V15.6342C18.2758 17.291 16.9326 18.6342 15.2758 18.6342H5.22754C3.57068 18.6342 2.22754 17.291 2.22754 15.6342V13.9513H5.58096C7.23782 13.9513 8.58096 12.6081 8.58096 10.9513V10.2686C8.58096 8.6117 7.23782 7.26855 5.58096 7.26855H2.22754V5.58594C2.22754 3.92908 3.57068 2.58594 5.22754 2.58594ZM6.58096 10.2686C6.58096 9.71627 6.13325 9.26855 5.58096 9.26855H2.22754V11.9513H5.58096C6.13325 11.9513 6.58096 11.5036 6.58096 10.9513V10.2686Z" fill="#4CA2FF"/>
</svg>
