<svg width="21" height="21" viewBox="0 0 21 21" fill="none" xmlns="http://www.w3.org/2000/svg">
<path fill-rule="evenodd" clip-rule="evenodd" d="M0.227539 5.62744C0.227539 2.86602 2.46612 0.627441 5.22754 0.627441H15.2758C18.0372 0.627441 20.2758 2.86602 20.2758 5.62744V15.6757C20.2758 18.4371 18.0372 20.6757 15.2758 20.6757H5.22754C2.46611 20.6757 0.227539 18.4371 0.227539 15.6757V5.62744ZM5.22754 2.62744H15.2758C16.9326 2.62744 18.2758 3.97059 18.2758 5.62744V15.6757C18.2758 17.3325 16.9326 18.6757 15.2758 18.6757H5.22754C3.57068 18.6757 2.22754 17.3325 2.22754 15.6757V13.9928H5.58096C7.23782 13.9928 8.58096 12.6497 8.58096 10.9928V10.3101C8.58096 8.6532 7.23782 7.31006 5.58096 7.31006H2.22754V5.62744C2.22754 3.97059 3.57068 2.62744 5.22754 2.62744ZM6.58096 10.3101C6.58096 9.75777 6.13325 9.31006 5.58096 9.31006H2.22754V11.9928H5.58096C6.13325 11.9928 6.58096 11.5451 6.58096 10.9928V10.3101Z" fill="#011829" fill-opacity="0.6"/>
</svg>
