<svg width="130" height="47" viewBox="0 0 130 47" fill="none" xmlns="http://www.w3.org/2000/svg">
<path fill-rule="evenodd" clip-rule="evenodd" d="M1.98006 0.986084C1.00947 0.986084 0.222656 1.7729 0.222656 2.74349V34.9625C0.222656 35.9331 1.00947 36.7199 1.98006 36.7199H33.6133C34.5839 36.7199 35.3707 35.9331 35.3707 34.9625V2.74349C35.3707 1.7729 34.5839 0.986084 33.6133 0.986084H1.98006ZM3.73746 18.4886V4.50089H31.8559V15.2344C31.2055 14.804 30.4596 14.3903 29.6283 14.0557C27.929 13.3717 25.8559 13.0134 23.5517 13.5403C21.2517 14.0663 18.8812 15.4377 16.5189 17.9393C14.5251 20.0509 12.7404 20.9861 11.2581 21.3251C9.77988 21.6632 8.44328 21.4448 7.27751 20.9755C6.09439 20.4993 5.10637 19.7701 4.40086 19.1362C4.12918 18.892 3.90629 18.6683 3.73746 18.4886ZM3.73746 23.0574V33.2051H31.8559V19.8032C31.687 19.6235 31.4642 19.3997 31.1925 19.1556C30.487 18.5217 29.4989 17.7925 28.3158 17.3163C27.1501 16.847 25.8135 16.6286 24.3353 16.9667C22.8529 17.3057 21.0683 18.2409 19.0744 20.3525C16.7122 22.8541 14.3417 24.2255 12.0416 24.7515C9.73742 25.2784 7.66438 24.9201 5.96503 24.2361C5.13377 23.9015 4.38785 23.4878 3.73746 23.0574Z" fill="#4CA2FF"/>
<path d="M61.8569 22.3533L56.6165 22.6758C56.527 22.2279 56.3344 21.8248 56.0388 21.4665C55.7431 21.0992 55.3535 20.8081 54.8698 20.5931C54.395 20.3691 53.8262 20.2572 53.1633 20.2572C52.2764 20.2572 51.5285 20.4453 50.9193 20.8215C50.3102 21.1888 50.0056 21.6815 50.0056 22.2996C50.0056 22.7922 50.2027 23.2088 50.5968 23.5492C50.991 23.8896 51.6673 24.1628 52.6258 24.3688L56.3612 25.1213C58.3678 25.5334 59.8638 26.1962 60.8491 27.1099C61.8345 28.0236 62.3272 29.224 62.3272 30.711C62.3272 32.0636 61.9286 33.2506 61.1313 34.2718C60.343 35.293 59.2591 36.0902 57.8796 36.6635C56.509 37.2279 54.928 37.51 53.1364 37.51C50.4043 37.51 48.2275 36.9412 46.6061 35.8036C44.9937 34.657 44.0486 33.0983 43.7709 31.1276L49.401 30.8319C49.5712 31.665 49.9832 32.301 50.6372 32.74C51.2911 33.1699 52.1286 33.3849 53.1498 33.3849C54.1531 33.3849 54.9593 33.1923 55.5685 32.8072C56.1866 32.413 56.5001 31.9069 56.509 31.2888C56.5001 30.7692 56.2806 30.3437 55.8506 30.0123C55.4207 29.6719 54.7578 29.4121 53.862 29.233L50.2878 28.5208C48.2723 28.1177 46.7718 27.419 45.7865 26.4247C44.8101 25.4303 44.3219 24.1628 44.3219 22.622C44.3219 21.2963 44.6802 20.1542 45.3968 19.1957C46.1224 18.2372 47.1391 17.4981 48.447 16.9786C49.7638 16.459 51.3045 16.1993 53.0692 16.1993C55.676 16.1993 57.7273 16.7502 59.2233 17.852C60.7282 18.9538 61.6061 20.4542 61.8569 22.3533ZM78.4101 28.3193V16.468H84.1342V37.1069H78.6385V33.3581H78.4236C77.9577 34.5674 77.1829 35.5393 76.099 36.2739C75.024 37.0084 73.7117 37.3757 72.162 37.3757C70.7825 37.3757 69.5687 37.0621 68.5206 36.4351C67.4725 35.808 66.6529 34.9167 66.0617 33.7612C65.4794 32.6056 65.1838 31.2216 65.1749 29.6092V16.468H70.8989V28.588C70.9079 29.8063 71.2349 30.7692 71.8798 31.4769C72.5248 32.1846 73.3892 32.5384 74.4731 32.5384C75.1629 32.5384 75.8079 32.3817 76.408 32.0681C77.0082 31.7456 77.4919 31.2709 77.8592 30.6438C78.2354 30.0168 78.4191 29.2419 78.4101 28.3193ZM87.956 37.1069V16.468H93.6801V37.1069H87.956ZM90.8315 13.8075C89.9805 13.8075 89.2504 13.5253 88.6413 12.961C88.0411 12.3877 87.741 11.7024 87.741 10.9051C87.741 10.1169 88.0411 9.44053 88.6413 8.87619C89.2504 8.30288 89.9805 8.01623 90.8315 8.01623C91.6825 8.01623 92.4081 8.30288 93.0083 8.87619C93.6174 9.44053 93.922 10.1169 93.922 10.9051C93.922 11.7024 93.6174 12.3877 93.0083 12.961C92.4081 13.5253 91.6825 13.8075 90.8315 13.8075ZM106.511 16.468V18.5507H96.6621V16.468H106.511ZM99.7392 11.5232H102.144V31.7188C102.144 32.5787 102.292 33.255 102.588 33.7477C102.883 34.2315 103.269 34.5763 103.743 34.7824C104.218 34.9794 104.724 35.078 105.262 35.078C105.575 35.078 105.844 35.0601 106.068 35.0242C106.292 34.9794 106.489 34.9346 106.659 34.8899L107.17 37.0532C106.937 37.1428 106.65 37.2234 106.31 37.295C105.969 37.3757 105.548 37.416 105.047 37.416C104.169 37.416 103.322 37.2234 102.507 36.8382C101.701 36.453 101.038 35.8797 100.519 35.1183C99.999 34.3569 99.7392 33.4118 99.7392 32.2831V11.5232ZM112.853 44.8465C112.378 44.8465 111.934 44.8017 111.522 44.7122C111.11 44.6226 110.783 44.5241 110.541 44.4166L111.186 42.307C112.002 42.5578 112.727 42.6474 113.363 42.5757C113.999 42.513 114.564 42.2264 115.056 41.7158C115.549 41.2141 115.988 40.4437 116.373 39.4046L117.125 37.3085L109.534 16.468H112.127L118.254 33.9493H118.442L124.569 16.468H127.163L118.429 40.3721C118.062 41.3664 117.609 42.195 117.072 42.8579C116.534 43.5297 115.912 44.0269 115.204 44.3494C114.505 44.6808 113.721 44.8465 112.853 44.8465Z" fill="#011829" fill-opacity="0.8"/>
</svg>
