<svg width="72" height="26" viewBox="0 0 72 26" fill="none" xmlns="http://www.w3.org/2000/svg">
<path fill-rule="evenodd" clip-rule="evenodd" d="M1.32072 1.20435C0.786009 1.20435 0.352539 1.63782 0.352539 2.17253V19.9225C0.352539 20.4572 0.786009 20.8907 1.32072 20.8907H18.748C19.2827 20.8907 19.7162 20.4572 19.7162 19.9225V2.17253C19.7162 1.63782 19.2827 1.20435 18.748 1.20435H1.32072ZM2.2889 10.8468V3.14071H17.7798V9.05396C17.4215 8.81687 17.0106 8.58896 16.5526 8.40462C15.6164 8.02777 14.4743 7.83039 13.2049 8.12069C11.9378 8.41046 10.6318 9.16596 9.33042 10.5442C8.23197 11.7075 7.24879 12.2227 6.43213 12.4095C5.61777 12.5957 4.88142 12.4754 4.23918 12.2169C3.58738 11.9545 3.04306 11.5528 2.65438 11.2035C2.50471 11.069 2.38192 10.9458 2.2889 10.8468ZM2.2889 13.3638V18.9543H17.7798V11.571C17.6868 11.472 17.564 11.3487 17.4143 11.2142C17.0257 10.865 16.4813 10.4633 15.8295 10.2009C15.1873 9.94239 14.4509 9.82209 13.6366 10.0083C12.8199 10.1951 11.8367 10.7103 10.7383 11.8736C9.43688 13.2518 8.13093 14.0073 6.8638 14.2971C5.59438 14.5874 4.45231 14.39 3.51611 14.0132C3.05815 13.8288 2.64722 13.6009 2.2889 13.3638Z" fill="#4CA2FF"/>
<path d="M34.3078 12.592L31.4208 12.7696C31.3714 12.5229 31.2653 12.3008 31.1025 12.1034C30.9396 11.901 30.7249 11.7407 30.4584 11.6222C30.1969 11.4988 29.8835 11.4372 29.5183 11.4372C29.0298 11.4372 28.6177 11.5408 28.2821 11.7481C27.9465 11.9504 27.7787 12.2218 27.7787 12.5623C27.7787 12.8338 27.8873 13.0632 28.1044 13.2508C28.3216 13.4383 28.6942 13.5888 29.2222 13.7023L31.2801 14.1169C32.3856 14.3439 33.2097 14.7091 33.7526 15.2125C34.2954 15.7158 34.5669 16.3771 34.5669 17.1963C34.5669 17.9415 34.3473 18.5954 33.908 19.158C33.4738 19.7206 32.8766 20.1598 32.1166 20.4757C31.3616 20.7866 30.4905 20.942 29.5035 20.942C27.9983 20.942 26.7991 20.6287 25.9059 20.0019C25.0176 19.3702 24.4969 18.5115 24.3439 17.4258L27.4456 17.263C27.5394 17.7219 27.7664 18.0723 28.1266 18.3141C28.4869 18.551 28.9483 18.6695 29.5109 18.6695C30.0636 18.6695 30.5078 18.5634 30.8434 18.3511C31.1839 18.134 31.3566 17.8552 31.3616 17.5147C31.3566 17.2284 31.2357 16.994 30.9988 16.8114C30.762 16.6239 30.3968 16.4808 29.9033 16.3821L27.9342 15.9897C26.8238 15.7677 25.9972 15.3827 25.4543 14.8349C24.9164 14.2871 24.6474 13.5888 24.6474 12.74C24.6474 12.0096 24.8448 11.3804 25.2396 10.8523C25.6394 10.3243 26.1995 9.91716 26.92 9.63093C27.6455 9.34469 28.4943 9.20158 29.4665 9.20158C30.9026 9.20158 32.0327 9.50508 32.8569 10.1121C33.686 10.7191 34.1696 11.5457 34.3078 12.592ZM43.4272 15.8787V9.34963H46.5807V20.72H43.5531V18.6547H43.4346C43.178 19.3209 42.7511 19.8563 42.154 20.261C41.5618 20.6657 40.8388 20.868 39.985 20.868C39.225 20.868 38.5563 20.6953 37.9789 20.3498C37.4015 20.0044 36.95 19.5134 36.6243 18.8767C36.3035 18.2401 36.1406 17.4776 36.1357 16.5893V9.34963H39.2892V16.0267C39.2941 16.6979 39.4743 17.2284 39.8296 17.6183C40.1849 18.0082 40.6611 18.2031 41.2583 18.2031C41.6383 18.2031 41.9936 18.1167 42.3242 17.944C42.6549 17.7663 42.9214 17.5048 43.1237 17.1593C43.331 16.8139 43.4322 16.387 43.4272 15.8787ZM48.6862 20.72V9.34963H51.8397V20.72H48.6862ZM50.2704 7.88392C49.8016 7.88392 49.3993 7.72847 49.0638 7.41756C48.7331 7.10172 48.5678 6.72418 48.5678 6.28497C48.5678 5.85068 48.7331 5.47809 49.0638 5.16718C49.3993 4.85134 49.8016 4.69341 50.2704 4.69341C50.7392 4.69341 51.1389 4.85134 51.4696 5.16718C51.8052 5.47809 51.973 5.85068 51.973 6.28497C51.973 6.72418 51.8052 7.10172 51.4696 7.41756C51.1389 7.72847 50.7392 7.88392 50.2704 7.88392ZM58.9087 9.34963V10.497H53.4826V9.34963H58.9087ZM55.1778 6.62548H56.5028V17.7515C56.5028 18.2253 56.5843 18.5979 56.7471 18.8693C56.91 19.1358 57.1222 19.3258 57.3837 19.4393C57.6453 19.5479 57.9241 19.6022 58.2202 19.6022C58.3929 19.6022 58.541 19.5923 58.6644 19.5726C58.7877 19.5479 58.8963 19.5232 58.9901 19.4985L59.2714 20.6904C59.1431 20.7397 58.9852 20.7841 58.7976 20.8236C58.6101 20.868 58.3781 20.8902 58.1018 20.8902C57.6181 20.8902 57.1518 20.7841 56.7027 20.5719C56.2585 20.3597 55.8933 20.0439 55.6071 19.6244C55.3209 19.2049 55.1778 18.6843 55.1778 18.0624V6.62548ZM62.4022 24.9838C62.1406 24.9838 61.8963 24.9592 61.6693 24.9098C61.4423 24.8605 61.2622 24.8062 61.1289 24.747L61.4842 23.5848C61.9333 23.7229 62.3331 23.7723 62.6834 23.7328C63.0338 23.6983 63.3447 23.5403 63.6162 23.2591C63.8876 22.9827 64.1294 22.5583 64.3416 21.9858L64.7562 20.831L60.5737 9.34963H62.0024L65.378 18.9804H65.4816L68.8572 9.34963H70.2859L65.4742 22.5188C65.2719 23.0666 65.0227 23.5231 64.7266 23.8883C64.4305 24.2584 64.0875 24.5323 63.6976 24.71C63.3127 24.8926 62.8808 24.9838 62.4022 24.9838Z" fill="#011829" fill-opacity="0.8"/>
</svg>
