<svg width="25" height="25" viewBox="0 0 25 25" fill="none" xmlns="http://www.w3.org/2000/svg">
<g clip-path="url(#clip0_680_1277)">
<path d="M24.2275 5.18449C23.3445 5.57649 22.3955 5.84049 21.3995 5.95949C22.4165 5.35049 23.1975 4.38549 23.5645 3.23549C22.6135 3.79949 21.5595 4.20949 20.4375 4.43049C19.5405 3.47349 18.2595 2.87549 16.8435 2.87549C13.6645 2.87549 11.3285 5.84149 12.0465 8.92049C7.95554 8.71549 4.32754 6.75549 1.89854 3.77649C0.608539 5.98949 1.22954 8.88449 3.42154 10.3505C2.61554 10.3245 1.85554 10.1035 1.19254 9.73449C1.13854 12.0155 2.77354 14.1495 5.14154 14.6245C4.44854 14.8125 3.68954 14.8565 2.91754 14.7085C3.54354 16.6645 5.36154 18.0875 7.51754 18.1275C5.44754 19.7505 2.83954 20.4755 0.227539 20.1675C2.40654 21.5645 4.99554 22.3795 7.77554 22.3795C16.9175 22.3795 22.0825 14.6585 21.7705 7.73349C22.7325 7.03849 23.5675 6.17149 24.2275 5.18449Z" fill="#29A8DF"/>
</g>
<defs>
<clipPath id="clip0_680_1277">
<rect width="24" height="24" fill="white" transform="translate(0.227539 0.627441)"/>
</clipPath>
</defs>
</svg>
