<svg width="22" height="22" viewBox="0 0 22 22" fill="none" xmlns="http://www.w3.org/2000/svg">
<path d="M2 4.01737V2.09516C2 1.54287 1.55228 1.09516 1 1.09516C0.447715 1.09516 0 1.54287 0 2.09516V7.90102H5.80586C6.35814 7.90102 6.80586 7.4533 6.80586 6.90102C6.80586 6.34873 6.35814 5.90102 5.80586 5.90102H3.08635C4.68966 3.54937 7.41197 2 10.5045 2C15.4497 2 19.4379 5.95743 19.4379 10.8137C19.4379 15.67 15.4497 19.6275 10.5045 19.6275C7.34523 19.6275 4.57247 18.0108 2.98381 15.5726L1.30812 16.6644C3.25421 19.6512 6.64791 21.6275 10.5045 21.6275C16.5314 21.6275 21.4379 16.7974 21.4379 10.8137C21.4379 4.83009 16.5314 0 10.5045 0C7.07135 0 4.00513 1.56588 2 4.01737Z" fill="white"/>
<path d="M9.9173 11.3531C9.88798 11.2728 9.87199 11.1861 9.87199 11.0957V4.78722C9.87199 4.37301 10.2078 4.03722 10.622 4.03722C11.0362 4.03722 11.372 4.37301 11.372 4.78722V10.7852L14.3066 13.7197C14.5995 14.0126 14.5995 14.4875 14.3066 14.7804C14.0137 15.0733 13.5388 15.0733 13.2459 14.7804L10.0917 11.6262C10.0117 11.5462 9.9536 11.4527 9.9173 11.3531Z" fill="white"/>
</svg>
