<svg width="109" height="18" viewBox="0 0 109 18" fill="none" xmlns="http://www.w3.org/2000/svg">
<path d="M97.8715 6.7235C97.812 6.21565 97.5711 5.8214 97.1486 5.54075C96.7262 5.2601 96.2079 5.11978 95.594 5.11978C95.1451 5.11978 94.7523 5.19328 94.4157 5.34028C94.0823 5.4873 93.8215 5.68943 93.6334 5.9467C93.4486 6.20397 93.3561 6.4963 93.3561 6.82373C93.3561 7.0977 93.4205 7.33324 93.5492 7.53037C93.6813 7.72414 93.8496 7.88619 94.0542 8.0165C94.2589 8.14345 94.4734 8.2487 94.6979 8.33222C94.9223 8.41242 95.1286 8.47756 95.3167 8.52767L96.3466 8.80833C96.6106 8.87849 96.9044 8.97539 97.2278 9.099C97.5546 9.22264 97.8664 9.39136 98.1637 9.60518C98.4639 9.81567 98.7115 10.0863 98.9062 10.4171C99.1011 10.7478 99.1984 11.1538 99.1984 11.6349C99.1984 12.1895 99.0548 12.6907 98.7677 13.1384C98.4839 13.5861 98.0678 13.9419 97.52 14.2059C96.9753 14.4698 96.3136 14.6018 95.5346 14.6018C94.8085 14.6018 94.1797 14.4832 93.6482 14.246C93.1201 14.0087 92.7042 13.678 92.4006 13.2537C92.1002 12.8293 91.9302 12.3365 91.8906 11.7752H93.1581C93.1911 12.1628 93.3198 12.4835 93.5443 12.7375C93.772 12.988 94.0592 13.1751 94.4058 13.2987C94.7556 13.419 95.1319 13.4792 95.5346 13.4792C96.0033 13.4792 96.4241 13.4023 96.7971 13.2486C97.1701 13.0916 97.4655 12.8744 97.6833 12.5971C97.9011 12.3165 98.01 11.989 98.01 11.6148C98.01 11.2741 97.916 10.9967 97.7279 10.7829C97.5398 10.5691 97.2922 10.3953 96.9853 10.2617C96.6783 10.1281 96.3466 10.0111 95.9901 9.9109L94.7424 9.55006C93.9503 9.31952 93.3231 8.99042 92.861 8.56276C92.3989 8.13511 92.1679 7.57546 92.1679 6.88386C92.1679 6.30919 92.3214 5.80804 92.6283 5.38037C92.9386 4.94938 93.3545 4.61527 93.876 4.37805C94.4008 4.1375 94.9867 4.01721 95.6336 4.01721C96.2871 4.01721 96.8681 4.13582 97.3764 4.37305C97.8847 4.60693 98.2873 4.92767 98.5843 5.33528C98.8847 5.74288 99.0433 6.20563 99.0597 6.7235H97.8715Z" fill="white"/>
<path d="M97.8715 6.7235C97.812 6.21565 97.5711 5.8214 97.1486 5.54075C96.7262 5.2601 96.2079 5.11978 95.594 5.11978C95.1451 5.11978 94.7523 5.19328 94.4157 5.34028C94.0823 5.4873 93.8215 5.68943 93.6334 5.9467C93.4486 6.20397 93.3561 6.4963 93.3561 6.82373C93.3561 7.0977 93.4205 7.33324 93.5492 7.53037C93.6813 7.72414 93.8496 7.88619 94.0542 8.0165C94.2589 8.14345 94.4734 8.2487 94.6979 8.33222C94.9223 8.41242 95.1286 8.47756 95.3167 8.52767L96.3466 8.80833C96.6106 8.87849 96.9044 8.97539 97.2278 9.099C97.5546 9.22264 97.8664 9.39136 98.1637 9.60518C98.4639 9.81567 98.7115 10.0863 98.9062 10.4171C99.1011 10.7478 99.1984 11.1538 99.1984 11.6349C99.1984 12.1895 99.0548 12.6907 98.7677 13.1384C98.4839 13.5861 98.0678 13.9419 97.52 14.2059C96.9753 14.4698 96.3136 14.6018 95.5346 14.6018C94.8085 14.6018 94.1797 14.4832 93.6482 14.246C93.1201 14.0087 92.7042 13.678 92.4006 13.2537C92.1002 12.8293 91.9302 12.3365 91.8906 11.7752H93.1581C93.1911 12.1628 93.3198 12.4835 93.5443 12.7375C93.772 12.988 94.0592 13.1751 94.4058 13.2987C94.7556 13.419 95.1319 13.4792 95.5346 13.4792C96.0033 13.4792 96.4241 13.4023 96.7971 13.2486C97.1701 13.0916 97.4655 12.8744 97.6833 12.5971C97.9011 12.3165 98.01 11.989 98.01 11.6148C98.01 11.2741 97.916 10.9967 97.7279 10.7829C97.5398 10.5691 97.2922 10.3953 96.9853 10.2617C96.6783 10.1281 96.3466 10.0111 95.9901 9.9109L94.7424 9.55006C93.9503 9.31952 93.3231 8.99042 92.861 8.56276C92.3989 8.13511 92.1679 7.57546 92.1679 6.88386C92.1679 6.30919 92.3214 5.80804 92.6283 5.38037C92.9386 4.94938 93.3545 4.61527 93.876 4.37805C94.4008 4.1375 94.9867 4.01721 95.6336 4.01721C96.2871 4.01721 96.8681 4.13582 97.3764 4.37305C97.8847 4.60693 98.2873 4.92767 98.5843 5.33528C98.8847 5.74288 99.0433 6.20563 99.0597 6.7235H97.8715Z" fill="white"/>
<path d="M105.015 11.2741V6.72357H106.183V14.4214H105.015V13.1184H104.936C104.757 13.5093 104.48 13.8418 104.104 14.1157C103.728 14.3863 103.252 14.5217 102.678 14.5217C102.203 14.5217 101.78 14.4164 101.41 14.2059C101.041 13.9921 100.75 13.6714 100.539 13.2437C100.328 12.8127 100.222 12.2698 100.222 11.6149V6.72357H101.391V11.5347C101.391 12.096 101.546 12.5437 101.856 12.8778C102.17 13.212 102.569 13.379 103.054 13.379C103.345 13.379 103.64 13.3038 103.94 13.1535C104.244 13.0031 104.498 12.7726 104.703 12.4619C104.911 12.1512 105.015 11.7553 105.015 11.2741Z" fill="white"/>
<path d="M105.015 11.2741V6.72357H106.183V14.4214H105.015V13.1184H104.936C104.757 13.5093 104.48 13.8418 104.104 14.1157C103.728 14.3863 103.252 14.5217 102.678 14.5217C102.203 14.5217 101.78 14.4164 101.41 14.2059C101.041 13.9921 100.75 13.6714 100.539 13.2437C100.328 12.8127 100.222 12.2698 100.222 11.6149V6.72357H101.391V11.5347C101.391 12.096 101.546 12.5437 101.856 12.8778C102.17 13.212 102.569 13.379 103.054 13.379C103.345 13.379 103.64 13.3038 103.94 13.1535C104.244 13.0031 104.498 12.7726 104.703 12.4619C104.911 12.1512 105.015 11.7553 105.015 11.2741Z" fill="white"/>
<path d="M107.487 14.4214V6.72355H108.655V14.4214H107.487ZM108.081 5.44057C107.853 5.44057 107.657 5.36205 107.492 5.20501C107.33 5.04799 107.25 4.85922 107.25 4.6387C107.25 4.41818 107.33 4.22941 107.492 4.07239C107.657 3.91535 107.853 3.83685 108.081 3.83685C108.309 3.83685 108.504 3.91535 108.665 4.07239C108.83 4.22941 108.913 4.41818 108.913 4.6387C108.913 4.85922 108.83 5.04799 108.665 5.20501C108.504 5.36205 108.309 5.44057 108.081 5.44057Z" fill="white"/>
<path d="M107.487 14.4214V6.72355H108.655V14.4214H107.487ZM108.081 5.44057C107.853 5.44057 107.657 5.36205 107.492 5.20501C107.33 5.04799 107.25 4.85922 107.25 4.6387C107.25 4.41818 107.33 4.22941 107.492 4.07239C107.657 3.91535 107.853 3.83685 108.081 3.83685C108.309 3.83685 108.504 3.91535 108.665 4.07239C108.83 4.22941 108.913 4.41818 108.913 4.6387C108.913 4.85922 108.83 5.04799 108.665 5.20501C108.504 5.36205 108.309 5.44057 108.081 5.44057Z" fill="white"/>
<path fill-rule="evenodd" clip-rule="evenodd" d="M97.794 6.81176L97.7847 6.73394C97.7284 6.25196 97.5016 5.88092 97.1006 5.61456C96.6952 5.34521 96.1945 5.20804 95.5938 5.20804C95.1543 5.20804 94.7737 5.28001 94.4502 5.42128C94.1289 5.56298 93.8812 5.75603 93.7035 5.99893C93.53 6.24058 93.4431 6.51455 93.4431 6.82378C93.4431 7.08294 93.5037 7.3007 93.6213 7.48106C93.7462 7.66417 93.9054 7.81764 94.1 7.94163C94.2995 8.06535 94.5086 8.1679 94.7273 8.24931C94.9497 8.32877 95.1535 8.3931 95.3388 8.44244L95.3392 8.44257L96.3685 8.72307C96.3686 8.7231 96.3687 8.72312 96.3687 8.72314C96.6363 8.79425 96.9329 8.89214 97.2583 9.0165C97.5924 9.14285 97.9107 9.31515 98.2134 9.53303C98.5243 9.75098 98.7801 10.031 98.9809 10.372C99.1854 10.7194 99.2853 11.1419 99.2853 11.635C99.2853 12.2058 99.1373 12.7237 98.8407 13.1862C98.5468 13.6497 98.1175 14.0156 97.5574 14.2855C96.9982 14.5565 96.3228 14.69 95.5344 14.69C94.7991 14.69 94.1578 14.57 93.6129 14.3267L93.6127 14.3266C93.0722 14.0839 92.6436 13.7438 92.3298 13.3055L92.3296 13.3051C92.0191 12.8665 91.8442 12.3578 91.8035 11.7816L91.7969 11.6871H93.2379L93.2448 11.7677C93.2763 12.1388 93.3988 12.4406 93.6087 12.6783C93.8257 12.9169 94.1001 13.0963 94.4341 13.2155C94.774 13.3323 95.1406 13.391 95.5344 13.391C95.9935 13.391 96.4028 13.3158 96.7637 13.1672C97.125 13.015 97.4076 12.8062 97.6149 12.5424C97.8198 12.2782 97.9228 11.9702 97.9228 11.6149C97.9228 11.2914 97.8339 11.0364 97.6626 10.8417C97.4844 10.639 97.248 10.4723 96.9507 10.3428C96.6477 10.2109 96.3197 10.0952 95.9666 9.99594L95.966 9.99577L94.7183 9.63494L94.7182 9.6349C93.917 9.40174 93.2767 9.0672 92.8021 8.62793C92.3202 8.18192 92.0806 7.59778 92.0806 6.88394C92.0806 6.29235 92.2389 5.77265 92.5577 5.32859L92.5578 5.3285C92.8777 4.88408 93.3059 4.54065 93.84 4.29771C94.3774 4.05142 94.9757 3.92909 95.6335 3.92909C96.2974 3.92909 96.891 4.04959 97.4125 4.2929C97.9325 4.53223 98.3475 4.86189 98.6542 5.28279C98.9653 5.70511 99.1295 6.18527 99.1468 6.72073L99.1495 6.81176H97.794ZM98.5842 5.33533C98.2872 4.92773 97.8846 4.60698 97.3762 4.3731C96.8679 4.13588 96.287 4.01729 95.6335 4.01729C94.9865 4.01729 94.4006 4.13756 93.8758 4.37812C93.3543 4.61532 92.9384 4.94945 92.6282 5.38045C92.3212 5.8081 92.1677 6.30927 92.1677 6.88394C92.1677 7.57554 92.3988 8.13517 92.8609 8.56282C93.323 8.99049 93.9501 9.31958 94.7423 9.55012L95.9899 9.91095C96.3464 10.0112 96.6781 10.1281 96.9851 10.2618C97.2921 10.3954 97.5396 10.5691 97.7278 10.783C97.9159 10.9968 98.0099 11.2741 98.0099 11.6149C98.0099 11.9891 97.901 12.3165 97.6832 12.5972C97.4653 12.8745 97.1699 13.0917 96.7969 13.2487C96.424 13.4024 96.0031 13.4792 95.5344 13.4792C95.1317 13.4792 94.7555 13.4191 94.4056 13.2988C94.059 13.1752 93.7719 12.9881 93.5441 12.7375C93.3197 12.4836 93.1909 12.1628 93.1579 11.7753H91.8905C91.8925 11.8049 91.895 11.8343 91.8978 11.8635C91.9484 12.3884 92.1159 12.8518 92.4004 13.2537C92.7041 13.678 93.12 14.0088 93.6481 14.246C94.1795 14.4832 94.8083 14.6018 95.5344 14.6018C96.3134 14.6018 96.9752 14.4699 97.5198 14.2059C98.0677 13.942 98.4835 13.5862 98.7675 13.1384C99.0547 12.6907 99.1983 12.1896 99.1983 11.635C99.1983 11.1538 99.1009 10.7479 98.906 10.4171C98.7114 10.0864 98.4637 9.81573 98.1633 9.60525C97.8663 9.39142 97.5545 9.22269 97.2277 9.09908C96.9042 8.97545 96.6105 8.87856 96.3464 8.80841L95.3166 8.52775C95.1284 8.47764 94.9221 8.41248 94.6977 8.3323C94.4733 8.24876 94.2587 8.14353 94.0541 8.01656C93.8494 7.88626 93.6811 7.72422 93.5491 7.53043C93.4203 7.33332 93.356 7.09776 93.356 6.82378C93.356 6.49636 93.4484 6.20402 93.6332 5.94675C93.8214 5.68949 94.0821 5.48735 94.4155 5.34036C94.7522 5.19334 95.1449 5.11984 95.5938 5.11984C96.2078 5.11984 96.726 5.26017 97.1485 5.54081C97.5709 5.82146 97.8118 6.21573 97.8713 6.72356H99.0595C99.0587 6.69398 99.0572 6.66457 99.0553 6.63535C99.0244 6.15302 98.8676 5.71966 98.5842 5.33533ZM104.927 6.63535H106.27V14.5096H104.927V13.3282C104.744 13.6598 104.486 13.9462 104.154 14.1873L104.154 14.1876C103.76 14.4712 103.266 14.6099 102.678 14.6099C102.189 14.6099 101.752 14.5016 101.368 14.2828L101.367 14.2825C100.981 14.0591 100.679 13.7246 100.461 13.2831L100.461 13.2829C100.242 12.8361 100.135 12.2787 100.135 11.6149V6.63535H101.478V11.5347C101.478 12.0788 101.627 12.503 101.919 12.8172C102.215 13.1325 102.591 13.2908 103.054 13.2908C103.329 13.2908 103.611 13.2197 103.902 13.0744L103.902 13.0742C104.191 12.9314 104.433 12.7119 104.63 12.4129L104.631 12.4124C104.826 12.1199 104.927 11.7426 104.927 11.2741V6.63535ZM101.856 12.8779C101.546 12.5437 101.39 12.096 101.39 11.5347V6.72356H100.222V11.6149C100.222 12.2698 100.328 12.8127 100.539 13.2437C100.75 13.6714 101.041 13.9921 101.41 14.2059C101.78 14.4164 102.203 14.5217 102.678 14.5217C103.252 14.5217 103.727 14.3863 104.104 14.1157C104.474 13.8458 104.749 13.5191 104.927 13.1356C104.93 13.1299 104.933 13.1241 104.935 13.1184H105.015V14.4214H106.183V6.72356H105.015V11.2741C105.015 11.7552 104.911 12.1512 104.703 12.4619C104.498 12.7726 104.244 13.0031 103.94 13.1535C103.64 13.3038 103.344 13.379 103.054 13.379C102.569 13.379 102.17 13.212 101.856 12.8779ZM107.399 14.5096V6.63535H108.742V14.5096H107.399ZM107.432 5.2693L107.431 5.26869C107.253 5.09556 107.162 4.88404 107.162 4.63873C107.162 4.39342 107.253 4.18188 107.431 4.00876L107.432 4.00814C107.613 3.83565 107.831 3.74866 108.081 3.74866C108.33 3.74866 108.547 3.8356 108.725 4.00848C108.906 4.18137 109 4.39295 109 4.63873C109 4.88449 108.906 5.09609 108.725 5.26898C108.547 5.44186 108.33 5.52878 108.081 5.52878C107.831 5.52878 107.613 5.44182 107.432 5.2693ZM108.665 5.20504C108.83 5.048 108.913 4.85923 108.913 4.63873C108.913 4.41821 108.83 4.22944 108.665 4.0724C108.503 3.91538 108.309 3.83686 108.081 3.83686C107.853 3.83686 107.657 3.91538 107.491 4.0724C107.33 4.22944 107.249 4.41821 107.249 4.63873C107.249 4.85923 107.33 5.048 107.491 5.20504C107.657 5.36206 107.853 5.44058 108.081 5.44058C108.309 5.44058 108.503 5.36206 108.665 5.20504ZM107.487 14.4214H108.655V6.72356H107.487V14.4214Z" fill="white"/>
<path fill-rule="evenodd" clip-rule="evenodd" d="M97.794 6.81176L97.7847 6.73394C97.7284 6.25196 97.5016 5.88092 97.1006 5.61456C96.6952 5.34521 96.1945 5.20804 95.5938 5.20804C95.1543 5.20804 94.7737 5.28001 94.4502 5.42128C94.1289 5.56298 93.8812 5.75603 93.7035 5.99893C93.53 6.24058 93.4431 6.51455 93.4431 6.82378C93.4431 7.08294 93.5037 7.3007 93.6213 7.48106C93.7462 7.66417 93.9054 7.81764 94.1 7.94163C94.2995 8.06535 94.5086 8.1679 94.7273 8.24931C94.9497 8.32877 95.1535 8.3931 95.3388 8.44244L95.3392 8.44257L96.3685 8.72307C96.3686 8.7231 96.3687 8.72312 96.3687 8.72314C96.6363 8.79425 96.9329 8.89214 97.2583 9.0165C97.5924 9.14285 97.9107 9.31515 98.2134 9.53303C98.5243 9.75098 98.7801 10.031 98.9809 10.372C99.1854 10.7194 99.2853 11.1419 99.2853 11.635C99.2853 12.2058 99.1373 12.7237 98.8407 13.1862C98.5468 13.6497 98.1175 14.0156 97.5574 14.2855C96.9982 14.5565 96.3228 14.69 95.5344 14.69C94.7991 14.69 94.1578 14.57 93.6129 14.3267L93.6127 14.3266C93.0722 14.0839 92.6436 13.7438 92.3298 13.3055L92.3296 13.3051C92.0191 12.8665 91.8442 12.3578 91.8035 11.7816L91.7969 11.6871H93.2379L93.2448 11.7677C93.2763 12.1388 93.3988 12.4406 93.6087 12.6783C93.8257 12.9169 94.1001 13.0963 94.4341 13.2155C94.774 13.3323 95.1406 13.391 95.5344 13.391C95.9935 13.391 96.4028 13.3158 96.7637 13.1672C97.125 13.015 97.4076 12.8062 97.6149 12.5424C97.8198 12.2782 97.9228 11.9702 97.9228 11.6149C97.9228 11.2914 97.8339 11.0364 97.6626 10.8417C97.4844 10.639 97.248 10.4723 96.9507 10.3428C96.6477 10.2109 96.3197 10.0952 95.9666 9.99594L95.966 9.99577L94.7183 9.63494L94.7182 9.6349C93.917 9.40174 93.2767 9.0672 92.8021 8.62793C92.3202 8.18192 92.0806 7.59778 92.0806 6.88394C92.0806 6.29235 92.2389 5.77265 92.5577 5.32859L92.5578 5.3285C92.8777 4.88408 93.3059 4.54065 93.84 4.29771C94.3774 4.05142 94.9757 3.92909 95.6335 3.92909C96.2974 3.92909 96.891 4.04959 97.4125 4.2929C97.9325 4.53223 98.3475 4.86189 98.6542 5.28279C98.9653 5.70511 99.1295 6.18527 99.1468 6.72073L99.1495 6.81176H97.794ZM98.5842 5.33533C98.2872 4.92773 97.8846 4.60698 97.3762 4.3731C96.8679 4.13588 96.287 4.01729 95.6335 4.01729C94.9865 4.01729 94.4006 4.13756 93.8758 4.37812C93.3543 4.61532 92.9384 4.94945 92.6282 5.38045C92.3212 5.8081 92.1677 6.30927 92.1677 6.88394C92.1677 7.57554 92.3988 8.13517 92.8609 8.56282C93.323 8.99049 93.9501 9.31958 94.7423 9.55012L95.9899 9.91095C96.3464 10.0112 96.6781 10.1281 96.9851 10.2618C97.2921 10.3954 97.5396 10.5691 97.7278 10.783C97.9159 10.9968 98.0099 11.2741 98.0099 11.6149C98.0099 11.9891 97.901 12.3165 97.6832 12.5972C97.4653 12.8745 97.1699 13.0917 96.7969 13.2487C96.424 13.4024 96.0031 13.4792 95.5344 13.4792C95.1317 13.4792 94.7555 13.4191 94.4056 13.2988C94.059 13.1752 93.7719 12.9881 93.5441 12.7375C93.3197 12.4836 93.1909 12.1628 93.1579 11.7753H91.8905C91.8925 11.8049 91.895 11.8343 91.8978 11.8635C91.9484 12.3884 92.1159 12.8518 92.4004 13.2537C92.7041 13.678 93.12 14.0088 93.6481 14.246C94.1795 14.4832 94.8083 14.6018 95.5344 14.6018C96.3134 14.6018 96.9752 14.4699 97.5198 14.2059C98.0677 13.942 98.4835 13.5862 98.7675 13.1384C99.0547 12.6907 99.1983 12.1896 99.1983 11.635C99.1983 11.1538 99.1009 10.7479 98.906 10.4171C98.7114 10.0864 98.4637 9.81573 98.1633 9.60525C97.8663 9.39142 97.5545 9.22269 97.2277 9.09908C96.9042 8.97545 96.6105 8.87856 96.3464 8.80841L95.3166 8.52775C95.1284 8.47764 94.9221 8.41248 94.6977 8.3323C94.4733 8.24876 94.2587 8.14353 94.0541 8.01656C93.8494 7.88626 93.6811 7.72422 93.5491 7.53043C93.4203 7.33332 93.356 7.09776 93.356 6.82378C93.356 6.49636 93.4484 6.20402 93.6332 5.94675C93.8214 5.68949 94.0821 5.48735 94.4155 5.34036C94.7522 5.19334 95.1449 5.11984 95.5938 5.11984C96.2078 5.11984 96.726 5.26017 97.1485 5.54081C97.5709 5.82146 97.8118 6.21573 97.8713 6.72356H99.0595C99.0587 6.69398 99.0572 6.66457 99.0553 6.63535C99.0244 6.15302 98.8676 5.71966 98.5842 5.33533ZM104.927 6.63535H106.27V14.5096H104.927V13.3282C104.744 13.6598 104.486 13.9462 104.154 14.1873L104.154 14.1876C103.76 14.4712 103.266 14.6099 102.678 14.6099C102.189 14.6099 101.752 14.5016 101.368 14.2828L101.367 14.2825C100.981 14.0591 100.679 13.7246 100.461 13.2831L100.461 13.2829C100.242 12.8361 100.135 12.2787 100.135 11.6149V6.63535H101.478V11.5347C101.478 12.0788 101.627 12.503 101.919 12.8172C102.215 13.1325 102.591 13.2908 103.054 13.2908C103.329 13.2908 103.611 13.2197 103.902 13.0744L103.902 13.0742C104.191 12.9314 104.433 12.7119 104.63 12.4129L104.631 12.4124C104.826 12.1199 104.927 11.7426 104.927 11.2741V6.63535ZM101.856 12.8779C101.546 12.5437 101.39 12.096 101.39 11.5347V6.72356H100.222V11.6149C100.222 12.2698 100.328 12.8127 100.539 13.2437C100.75 13.6714 101.041 13.9921 101.41 14.2059C101.78 14.4164 102.203 14.5217 102.678 14.5217C103.252 14.5217 103.727 14.3863 104.104 14.1157C104.474 13.8458 104.749 13.5191 104.927 13.1356C104.93 13.1299 104.933 13.1241 104.935 13.1184H105.015V14.4214H106.183V6.72356H105.015V11.2741C105.015 11.7552 104.911 12.1512 104.703 12.4619C104.498 12.7726 104.244 13.0031 103.94 13.1535C103.64 13.3038 103.344 13.379 103.054 13.379C102.569 13.379 102.17 13.212 101.856 12.8779ZM107.399 14.5096V6.63535H108.742V14.5096H107.399ZM107.432 5.2693L107.431 5.26869C107.253 5.09556 107.162 4.88404 107.162 4.63873C107.162 4.39342 107.253 4.18188 107.431 4.00876L107.432 4.00814C107.613 3.83565 107.831 3.74866 108.081 3.74866C108.33 3.74866 108.547 3.8356 108.725 4.00848C108.906 4.18137 109 4.39295 109 4.63873C109 4.88449 108.906 5.09609 108.725 5.26898C108.547 5.44186 108.33 5.52878 108.081 5.52878C107.831 5.52878 107.613 5.44182 107.432 5.2693ZM108.665 5.20504C108.83 5.048 108.913 4.85923 108.913 4.63873C108.913 4.41821 108.83 4.22944 108.665 4.0724C108.503 3.91538 108.309 3.83686 108.081 3.83686C107.853 3.83686 107.657 3.91538 107.491 4.0724C107.33 4.22944 107.249 4.41821 107.249 4.63873C107.249 4.85923 107.33 5.048 107.491 5.20504C107.657 5.36206 107.853 5.44058 108.081 5.44058C108.309 5.44058 108.503 5.36206 108.665 5.20504ZM107.487 14.4214H108.655V6.72356H107.487V14.4214Z" fill="white"/>
<path fill-rule="evenodd" clip-rule="evenodd" d="M87.072 7.09986L87.0717 7.10061C87.7578 7.97143 88.1678 9.0744 88.1678 10.274C88.1678 11.4915 87.7455 12.6095 87.0409 13.4862L86.9802 13.5617L86.9641 13.4657C86.9505 13.3842 86.9344 13.3018 86.9157 13.2188C86.5631 11.6504 85.4141 10.3056 83.5232 9.21665C82.2462 8.48334 81.5153 7.60036 81.3234 6.59712C81.1994 5.94839 81.2916 5.29678 81.4697 4.73864C81.6477 4.1807 81.9125 3.71323 82.1375 3.43179L82.1376 3.43162L82.8732 2.52114C83.0022 2.36146 83.2436 2.36146 83.3726 2.52114L87.072 7.09986ZM88.2355 6.19021L88.2356 6.18987L83.3051 0.0873885C83.211 -0.0291295 83.0348 -0.0291295 82.9406 0.0873885L78.0101 6.18992L78.0103 6.19026L77.9942 6.21041C77.0869 7.35007 76.5439 8.79838 76.5439 10.375C76.5439 14.0468 79.4894 17.0235 83.1229 17.0235C86.7564 17.0235 89.7018 14.0468 89.7018 10.375C89.7018 8.79838 89.1589 7.35007 88.2516 6.21043L88.2355 6.19021ZM79.1899 7.0802L79.19 7.07995L79.631 6.53411L79.6444 6.63487C79.6549 6.71471 79.6677 6.79493 79.6829 6.87552C79.9683 8.39099 80.9876 9.65462 82.6918 10.6333C84.1732 11.4867 85.0357 12.4681 85.2842 13.5444C85.3879 13.9936 85.4064 14.4355 85.3615 14.8219L85.3587 14.8458L85.3373 14.8564C84.6687 15.1871 83.9171 15.3726 83.1227 15.3726C80.3365 15.3726 78.0777 13.09 78.0777 10.274C78.0777 9.06506 78.4941 7.95415 79.1899 7.0802Z" fill="white"/>
<path fill-rule="evenodd" clip-rule="evenodd" d="M87.072 7.09986L87.0717 7.10061C87.7578 7.97143 88.1678 9.0744 88.1678 10.274C88.1678 11.4915 87.7455 12.6095 87.0409 13.4862L86.9802 13.5617L86.9641 13.4657C86.9505 13.3842 86.9344 13.3018 86.9157 13.2188C86.5631 11.6504 85.4141 10.3056 83.5232 9.21665C82.2462 8.48334 81.5153 7.60036 81.3234 6.59712C81.1994 5.94839 81.2916 5.29678 81.4697 4.73864C81.6477 4.1807 81.9125 3.71323 82.1375 3.43179L82.1376 3.43162L82.8732 2.52114C83.0022 2.36146 83.2436 2.36146 83.3726 2.52114L87.072 7.09986ZM88.2355 6.19021L88.2356 6.18987L83.3051 0.0873885C83.211 -0.0291295 83.0348 -0.0291295 82.9406 0.0873885L78.0101 6.18992L78.0103 6.19026L77.9942 6.21041C77.0869 7.35007 76.5439 8.79838 76.5439 10.375C76.5439 14.0468 79.4894 17.0235 83.1229 17.0235C86.7564 17.0235 89.7018 14.0468 89.7018 10.375C89.7018 8.79838 89.1589 7.35007 88.2516 6.21043L88.2355 6.19021ZM79.1899 7.0802L79.19 7.07995L79.631 6.53411L79.6444 6.63487C79.6549 6.71471 79.6677 6.79493 79.6829 6.87552C79.9683 8.39099 80.9876 9.65462 82.6918 10.6333C84.1732 11.4867 85.0357 12.4681 85.2842 13.5444C85.3879 13.9936 85.4064 14.4355 85.3615 14.8219L85.3587 14.8458L85.3373 14.8564C84.6687 15.1871 83.9171 15.3726 83.1227 15.3726C80.3365 15.3726 78.0777 13.09 78.0777 10.274C78.0777 9.06506 78.4941 7.95415 79.1899 7.0802Z" fill="white"/>
<path d="M72.895 12.5281L71.8856 11.1299L70.8763 12.5281H69.4688L71.1819 10.2131L69.5614 8H70.9874L71.9134 9.28714L72.8301 8H74.2284L72.6079 10.2039L74.321 12.5281H72.895Z" fill="white"/>
<path d="M3.78814 15.1993H0L3.9188 4.25586H8.06983L11.9886 15.1993H8.18595L7.63445 13.6464H4.33975L3.78814 15.1993ZM4.99283 11.237H6.9958L5.99437 8.45021L4.99283 11.237Z" fill="white"/>
<path d="M16.6616 11.7159H19.9709V15.1994H12.917V4.25586H16.6616V11.7159Z" fill="white"/>
<path d="M25.0508 11.7159H28.3599V15.1994H21.3062V4.25586H25.0508V11.7159Z" fill="white"/>
<path d="M30.5055 9.68909C30.5055 9.30965 30.6181 8.93874 30.8289 8.62325C31.0397 8.30776 31.3393 8.06187 31.6898 7.91666C32.0404 7.77146 32.4261 7.73347 32.7983 7.80749C33.1704 7.88152 33.5123 8.06423 33.7806 8.33253C34.0489 8.60083 34.2316 8.94267 34.3056 9.31481C34.3796 9.68696 34.3416 10.0727 34.1964 10.4232C34.0512 10.7738 33.8053 11.0734 33.4898 11.2842C33.1744 11.495 32.8034 11.6075 32.424 11.6075C32.1711 11.611 31.9201 11.5637 31.6858 11.4685C31.4515 11.3733 31.2386 11.2322 31.0598 11.0533C30.8809 10.8745 30.7397 10.6616 30.6446 10.4273C30.5494 10.193 30.5021 9.94198 30.5055 9.68909Z" fill="white"/>
<path d="M39.3833 15.1993H35.5947L39.5136 4.25586H43.6645L47.5833 15.1993H43.7807L43.2292 13.6464H39.9345L39.3833 15.1993ZM40.588 11.237H42.5908L41.5894 8.45021L40.588 11.237Z" fill="white"/>
<path d="M52.1528 15.1993H48.4082V4.25586H53.8799C55.2153 4.25586 56.1297 4.64773 56.7682 5.28637C57.4504 5.96854 57.8133 6.85375 57.8133 7.89881C57.8133 9.24859 57.0585 10.4388 55.8394 10.8742L58.5535 15.1993H54.359L52.1528 11.5129V15.1993ZM54.0687 8.1891C54.0687 7.59397 53.6768 7.18767 52.9221 7.18767H52.1528V9.19063H52.9221C53.6768 9.19063 54.0687 8.78412 54.0687 8.1891V8.1891Z" fill="white"/>
<path d="M58.73 4.25586H66.7707V7.73937H64.6227V15.1995H60.878V7.73917H58.73V4.25586Z" fill="white"/>
</svg>
