<svg width="180" height="28" viewBox="0 0 180 28" fill="none" xmlns="http://www.w3.org/2000/svg">
<path d="M160.977 11.0586C160.88 10.2233 160.483 9.57481 159.788 9.11319C159.094 8.65158 158.241 8.42079 157.231 8.42079C156.493 8.42079 155.847 8.54168 155.293 8.78346C154.745 9.02527 154.316 9.35774 154.007 9.78089C153.703 10.204 153.551 10.6849 153.551 11.2234C153.551 11.674 153.656 12.0615 153.868 12.3857C154.085 12.7044 154.362 12.9709 154.699 13.1853C155.035 13.3941 155.388 13.5672 155.757 13.7046C156.127 13.8365 156.466 13.9436 156.775 14.026L158.469 14.4877C158.904 14.603 159.387 14.7624 159.919 14.9658C160.456 15.1691 160.969 15.4466 161.458 15.7983C161.952 16.1445 162.359 16.5896 162.679 17.1337C163 17.6777 163.16 18.3454 163.16 19.1367C163.16 20.049 162.924 20.8733 162.451 21.6097C161.985 22.346 161.3 22.9313 160.399 23.3654C159.503 23.7996 158.415 24.0166 157.134 24.0166C155.939 24.0166 154.905 23.8216 154.031 23.4314C153.162 23.0412 152.478 22.4972 151.979 21.7993C151.485 21.1013 151.205 20.2908 151.14 19.3676H153.225C153.279 20.005 153.491 20.5326 153.86 20.9502C154.235 21.3624 154.707 21.6701 155.277 21.8734C155.852 22.0713 156.471 22.1702 157.134 22.1702C157.905 22.1702 158.597 22.0438 159.21 21.791C159.824 21.5327 160.31 21.1755 160.668 20.7194C161.026 20.2578 161.205 19.7192 161.205 19.1038C161.205 18.5432 161.051 18.0871 160.741 17.7354C160.432 17.3837 160.025 17.098 159.52 16.8782C159.015 16.6583 158.469 16.466 157.883 16.3011L155.831 15.7076C154.528 15.3285 153.496 14.7871 152.736 14.0838C151.976 13.3804 151.596 12.4599 151.596 11.3223C151.596 10.3771 151.849 9.55283 152.354 8.8494C152.864 8.14051 153.548 7.59097 154.406 7.20079C155.269 6.80515 156.232 6.6073 157.297 6.6073C158.371 6.6073 159.327 6.80239 160.163 7.19257C160.999 7.57725 161.661 8.10481 162.15 8.77523C162.644 9.44566 162.905 10.2068 162.932 11.0586H160.977Z" fill="white"/>
<path d="M160.977 11.0586C160.88 10.2233 160.483 9.57481 159.788 9.11319C159.094 8.65158 158.241 8.42079 157.231 8.42079C156.493 8.42079 155.847 8.54168 155.293 8.78346C154.745 9.02527 154.316 9.35774 154.007 9.78089C153.703 10.204 153.551 10.6849 153.551 11.2234C153.551 11.674 153.656 12.0615 153.868 12.3857C154.085 12.7044 154.362 12.9709 154.699 13.1853C155.035 13.3941 155.388 13.5672 155.757 13.7046C156.127 13.8365 156.466 13.9436 156.775 14.026L158.469 14.4877C158.904 14.603 159.387 14.7624 159.919 14.9658C160.456 15.1691 160.969 15.4466 161.458 15.7983C161.952 16.1445 162.359 16.5896 162.679 17.1337C163 17.6777 163.16 18.3454 163.16 19.1367C163.16 20.049 162.924 20.8733 162.451 21.6097C161.985 22.346 161.3 22.9313 160.399 23.3654C159.503 23.7996 158.415 24.0166 157.134 24.0166C155.939 24.0166 154.905 23.8216 154.031 23.4314C153.162 23.0412 152.478 22.4972 151.979 21.7993C151.485 21.1013 151.205 20.2908 151.14 19.3676H153.225C153.279 20.005 153.491 20.5326 153.86 20.9502C154.235 21.3624 154.707 21.6701 155.277 21.8734C155.852 22.0713 156.471 22.1702 157.134 22.1702C157.905 22.1702 158.597 22.0438 159.21 21.791C159.824 21.5327 160.31 21.1755 160.668 20.7194C161.026 20.2578 161.205 19.7192 161.205 19.1038C161.205 18.5432 161.051 18.0871 160.741 17.7354C160.432 17.3837 160.025 17.098 159.52 16.8782C159.015 16.6583 158.469 16.466 157.883 16.3011L155.831 15.7076C154.528 15.3285 153.496 14.7871 152.736 14.0838C151.976 13.3804 151.596 12.4599 151.596 11.3223C151.596 10.3771 151.849 9.55283 152.354 8.8494C152.864 8.14051 153.548 7.59097 154.406 7.20079C155.269 6.80515 156.232 6.6073 157.297 6.6073C158.371 6.6073 159.327 6.80239 160.163 7.19257C160.999 7.57725 161.661 8.10481 162.15 8.77523C162.644 9.44566 162.905 10.2068 162.932 11.0586H160.977Z" fill="white"/>
<path d="M172.727 18.5438V11.0591H174.648V23.7205H172.727V21.5773H172.596C172.303 22.2202 171.847 22.767 171.228 23.2176C170.609 23.6627 169.828 23.8853 168.883 23.8853C168.101 23.8853 167.406 23.7122 166.798 23.366C166.19 23.0143 165.712 22.4867 165.365 21.7834C165.018 21.0744 164.844 20.1814 164.844 19.1043V11.0591H166.766V18.9725C166.766 19.8957 167.021 20.6321 167.531 21.1816C168.047 21.7311 168.704 22.0059 169.502 22.0059C169.979 22.0059 170.466 21.8823 170.959 21.635C171.459 21.3877 171.877 21.0085 172.213 20.4974C172.555 19.9864 172.727 19.3352 172.727 18.5438Z" fill="white"/>
<path d="M172.727 18.5438V11.0591H174.648V23.7205H172.727V21.5773H172.596C172.303 22.2202 171.847 22.767 171.228 23.2176C170.609 23.6627 169.828 23.8853 168.883 23.8853C168.101 23.8853 167.406 23.7122 166.798 23.366C166.19 23.0143 165.712 22.4867 165.365 21.7834C165.018 21.0744 164.844 20.1814 164.844 19.1043V11.0591H166.766V18.9725C166.766 19.8957 167.021 20.6321 167.531 21.1816C168.047 21.7311 168.704 22.0059 169.502 22.0059C169.979 22.0059 170.466 21.8823 170.959 21.635C171.459 21.3877 171.877 21.0085 172.213 20.4974C172.555 19.9864 172.727 19.3352 172.727 18.5438Z" fill="white"/>
<path d="M176.793 23.72V11.0587H178.714V23.72H176.793ZM177.77 8.9485C177.395 8.9485 177.072 8.81935 176.801 8.56105C176.535 8.30279 176.402 7.9923 176.402 7.6296C176.402 7.26689 176.535 6.95641 176.801 6.69814C177.072 6.43984 177.395 6.31073 177.77 6.31073C178.145 6.31073 178.465 6.43984 178.731 6.69814C179.002 6.95641 179.138 7.26689 179.138 7.6296C179.138 7.9923 179.002 8.30279 178.731 8.56105C178.465 8.81935 178.145 8.9485 177.77 8.9485Z" fill="white"/>
<path d="M176.793 23.72V11.0587H178.714V23.72H176.793ZM177.77 8.9485C177.395 8.9485 177.072 8.81935 176.801 8.56105C176.535 8.30279 176.402 7.9923 176.402 7.6296C176.402 7.26689 176.535 6.95641 176.801 6.69814C177.072 6.43984 177.395 6.31073 177.77 6.31073C178.145 6.31073 178.465 6.43984 178.731 6.69814C179.002 6.95641 179.138 7.26689 179.138 7.6296C179.138 7.9923 179.002 8.30279 178.731 8.56105C178.465 8.81935 178.145 8.9485 177.77 8.9485Z" fill="white"/>
<path fill-rule="evenodd" clip-rule="evenodd" d="M160.85 11.2037L160.835 11.0757C160.742 10.2829 160.369 9.67263 159.71 9.23454C159.043 8.79151 158.219 8.5659 157.232 8.5659C156.509 8.5659 155.883 8.68427 155.35 8.91663C154.822 9.1497 154.415 9.46722 154.122 9.86674C153.837 10.2642 153.694 10.7148 153.694 11.2234C153.694 11.6497 153.794 12.0079 153.987 12.3045C154.193 12.6057 154.454 12.8581 154.775 13.0621C155.103 13.2656 155.446 13.4342 155.806 13.5681C156.172 13.6988 156.507 13.8046 156.812 13.8858L156.813 13.886L158.506 14.3474C158.506 14.3474 158.506 14.3474 158.506 14.3475C158.946 14.4644 159.434 14.6254 159.969 14.83C160.519 15.0378 161.042 15.3212 161.54 15.6796C162.051 16.038 162.472 16.4986 162.802 17.0595C163.139 17.6309 163.303 18.3258 163.303 19.1368C163.303 20.0758 163.06 20.9275 162.572 21.6883C162.088 22.4506 161.382 23.0525 160.461 23.4963C159.541 23.9421 158.43 24.1618 157.134 24.1618C155.924 24.1618 154.87 23.9643 153.973 23.5642L153.973 23.564C153.084 23.1647 152.379 22.6054 151.863 21.8844L151.863 21.8838C151.352 21.1624 151.064 20.3257 150.997 19.3779L150.986 19.2225H153.356L153.368 19.3551C153.42 19.9656 153.621 20.4619 153.966 20.8528C154.323 21.2454 154.775 21.5403 155.324 21.7364C155.883 21.9285 156.486 22.0251 157.134 22.0251C157.889 22.0251 158.562 21.9014 159.156 21.657C159.75 21.4067 160.215 21.0633 160.556 20.6293C160.893 20.1947 161.062 19.6883 161.062 19.1038C161.062 18.5717 160.916 18.1522 160.634 17.832C160.341 17.4987 159.952 17.2244 159.463 17.0115C158.965 16.7945 158.425 16.6043 157.845 16.441L157.844 16.4407L155.791 15.8472L155.791 15.8471C154.474 15.4636 153.42 14.9134 152.64 14.1909C151.847 13.4573 151.453 12.4965 151.453 11.3224C151.453 10.3494 151.713 9.49455 152.238 8.76417L152.238 8.76403C152.764 8.03306 153.468 7.46819 154.347 7.0686C155.231 6.66351 156.215 6.46229 157.297 6.46229C158.389 6.46229 159.365 6.6605 160.223 7.06069C161.078 7.45433 161.761 7.99655 162.265 8.68885C162.777 9.38346 163.047 10.1732 163.075 11.0539L163.08 11.2037H160.85ZM162.15 8.77527C161.661 8.10484 160.999 7.57729 160.163 7.1926C159.327 6.80242 158.372 6.60737 157.297 6.60737C156.233 6.60737 155.269 6.80519 154.406 7.20086C153.548 7.59101 152.864 8.14058 152.354 8.84947C151.849 9.55286 151.596 10.3772 151.596 11.3224C151.596 12.4599 151.976 13.3804 152.736 14.0838C153.496 14.7872 154.528 15.3285 155.831 15.7077L157.883 16.3012C158.469 16.4661 159.015 16.6584 159.52 16.8782C160.025 17.098 160.432 17.3838 160.741 17.7355C161.051 18.0872 161.205 18.5433 161.205 19.1038C161.205 19.7193 161.026 20.2579 160.668 20.7195C160.31 21.1756 159.824 21.5328 159.21 21.7911C158.597 22.0438 157.905 22.1702 157.134 22.1702C156.471 22.1702 155.853 22.0713 155.277 21.8735C154.707 21.6702 154.235 21.3624 153.86 20.9503C153.491 20.5326 153.279 20.0051 153.225 19.3676H151.14C151.144 19.4163 151.148 19.4646 151.152 19.5127C151.235 20.376 151.511 21.1382 151.979 21.7993C152.478 22.4972 153.163 23.0413 154.031 23.4314C154.905 23.8216 155.939 24.0167 157.134 24.0167C158.415 24.0167 159.504 23.7996 160.399 23.3655C161.3 22.9313 161.984 22.3461 162.452 21.6097C162.924 20.8733 163.16 20.049 163.16 19.1368C163.16 18.3455 163 17.6778 162.679 17.1337C162.359 16.5897 161.952 16.1446 161.458 15.7984C160.969 15.4467 160.456 15.1691 159.919 14.9658C159.387 14.7625 158.904 14.6031 158.469 14.4877L156.775 14.0261C156.466 13.9437 156.127 13.8365 155.758 13.7046C155.388 13.5672 155.036 13.3941 154.699 13.1853C154.362 12.971 154.085 12.7045 153.868 12.3857C153.657 12.0615 153.551 11.6741 153.551 11.2234C153.551 10.6849 153.703 10.2041 154.007 9.78092C154.316 9.35777 154.745 9.02531 155.293 8.78353C155.847 8.54171 156.493 8.42082 157.232 8.42082C158.241 8.42082 159.094 8.65165 159.789 9.11323C160.483 9.57484 160.88 10.2233 160.978 11.0586H162.932C162.93 11.0099 162.928 10.9616 162.925 10.9135C162.874 10.1202 162.616 9.4074 162.15 8.77527ZM172.583 10.9135H174.792V23.865H172.583V21.9218C172.281 22.4673 171.857 22.9383 171.312 23.3349L171.311 23.3354C170.663 23.8018 169.85 24.0299 168.883 24.0299C168.08 24.0299 167.36 23.8518 166.728 23.4919L166.727 23.4914C166.092 23.124 165.596 22.5738 165.237 21.8477L165.237 21.8473C164.876 21.1125 164.7 20.1956 164.7 19.1038V10.9135H166.909V18.9719C166.909 19.8668 167.155 20.5645 167.635 21.0814C168.122 21.5999 168.74 21.8603 169.502 21.8603C169.954 21.8603 170.419 21.7433 170.896 21.5044L170.897 21.5041C171.371 21.2691 171.771 20.9081 172.094 20.4164L172.095 20.4155C172.417 19.9344 172.583 19.3138 172.583 18.5433V10.9135ZM167.531 21.1811C167.021 20.6316 166.766 19.8952 166.766 18.9719V11.0586H164.844V19.1038C164.844 20.1809 165.017 21.0739 165.365 21.7828C165.712 22.4862 166.19 23.0138 166.798 23.3655C167.406 23.7117 168.101 23.8848 168.883 23.8848C169.828 23.8848 170.609 23.6622 171.228 23.2171C171.838 22.7731 172.29 22.2357 172.583 21.605C172.588 21.5956 172.592 21.5862 172.596 21.5767H172.727V23.7199H174.649V11.0586H172.727V18.5433C172.727 19.3346 172.556 19.9858 172.214 20.4969C171.877 21.008 171.459 21.3871 170.96 21.6344C170.465 21.8817 169.98 22.0054 169.502 22.0054C168.704 22.0054 168.047 21.7306 167.531 21.1811ZM176.649 23.865V10.9135H178.858V23.865H176.649ZM176.703 8.66666L176.702 8.66565C176.408 8.38089 176.258 8.03299 176.258 7.62951C176.258 7.22603 176.408 6.87809 176.702 6.59333L176.703 6.59232C177.001 6.30861 177.359 6.16553 177.77 6.16553C178.181 6.16553 178.536 6.30854 178.83 6.59288C179.128 6.87725 179.281 7.22526 179.281 7.62951C179.281 8.03372 179.128 8.38176 178.83 8.66614C178.536 8.95048 178.181 9.09345 177.77 9.09345C177.359 9.09345 177.001 8.95041 176.703 8.66666ZM178.731 8.56096C179.002 8.30266 179.138 7.99218 179.138 7.62951C179.138 7.2668 179.002 6.95632 178.731 6.69802C178.465 6.43975 178.145 6.3106 177.77 6.3106C177.395 6.3106 177.072 6.43975 176.801 6.69802C176.535 6.95632 176.402 7.2668 176.402 7.62951C176.402 7.99218 176.535 8.30266 176.801 8.56096C177.072 8.81923 177.395 8.94838 177.77 8.94838C178.145 8.94838 178.465 8.81923 178.731 8.56096ZM176.793 23.7199H178.714V11.0586H176.793V23.7199Z" fill="white"/>
<path fill-rule="evenodd" clip-rule="evenodd" d="M160.85 11.2037L160.835 11.0757C160.742 10.2829 160.369 9.67263 159.71 9.23454C159.043 8.79151 158.219 8.5659 157.232 8.5659C156.509 8.5659 155.883 8.68427 155.35 8.91663C154.822 9.1497 154.415 9.46722 154.122 9.86674C153.837 10.2642 153.694 10.7148 153.694 11.2234C153.694 11.6497 153.794 12.0079 153.987 12.3045C154.193 12.6057 154.454 12.8581 154.775 13.0621C155.103 13.2656 155.446 13.4342 155.806 13.5681C156.172 13.6988 156.507 13.8046 156.812 13.8858L156.813 13.886L158.506 14.3474C158.506 14.3474 158.506 14.3474 158.506 14.3475C158.946 14.4644 159.434 14.6254 159.969 14.83C160.519 15.0378 161.042 15.3212 161.54 15.6796C162.051 16.038 162.472 16.4986 162.802 17.0595C163.139 17.6309 163.303 18.3258 163.303 19.1368C163.303 20.0758 163.06 20.9275 162.572 21.6883C162.088 22.4506 161.382 23.0525 160.461 23.4963C159.541 23.9421 158.43 24.1618 157.134 24.1618C155.924 24.1618 154.87 23.9643 153.973 23.5642L153.973 23.564C153.084 23.1647 152.379 22.6054 151.863 21.8844L151.863 21.8838C151.352 21.1624 151.064 20.3257 150.997 19.3779L150.986 19.2225H153.356L153.368 19.3551C153.42 19.9656 153.621 20.4619 153.966 20.8528C154.323 21.2454 154.775 21.5403 155.324 21.7364C155.883 21.9285 156.486 22.0251 157.134 22.0251C157.889 22.0251 158.562 21.9014 159.156 21.657C159.75 21.4067 160.215 21.0633 160.556 20.6293C160.893 20.1947 161.062 19.6883 161.062 19.1038C161.062 18.5717 160.916 18.1522 160.634 17.832C160.341 17.4987 159.952 17.2244 159.463 17.0115C158.965 16.7945 158.425 16.6043 157.845 16.441L157.844 16.4407L155.791 15.8472L155.791 15.8471C154.474 15.4636 153.42 14.9134 152.64 14.1909C151.847 13.4573 151.453 12.4965 151.453 11.3224C151.453 10.3494 151.713 9.49455 152.238 8.76417L152.238 8.76403C152.764 8.03306 153.468 7.46819 154.347 7.0686C155.231 6.66351 156.215 6.46229 157.297 6.46229C158.389 6.46229 159.365 6.6605 160.223 7.06069C161.078 7.45433 161.761 7.99655 162.265 8.68885C162.777 9.38346 163.047 10.1732 163.075 11.0539L163.08 11.2037H160.85ZM162.15 8.77527C161.661 8.10484 160.999 7.57729 160.163 7.1926C159.327 6.80242 158.372 6.60737 157.297 6.60737C156.233 6.60737 155.269 6.80519 154.406 7.20086C153.548 7.59101 152.864 8.14058 152.354 8.84947C151.849 9.55286 151.596 10.3772 151.596 11.3224C151.596 12.4599 151.976 13.3804 152.736 14.0838C153.496 14.7872 154.528 15.3285 155.831 15.7077L157.883 16.3012C158.469 16.4661 159.015 16.6584 159.52 16.8782C160.025 17.098 160.432 17.3838 160.741 17.7355C161.051 18.0872 161.205 18.5433 161.205 19.1038C161.205 19.7193 161.026 20.2579 160.668 20.7195C160.31 21.1756 159.824 21.5328 159.21 21.7911C158.597 22.0438 157.905 22.1702 157.134 22.1702C156.471 22.1702 155.853 22.0713 155.277 21.8735C154.707 21.6702 154.235 21.3624 153.86 20.9503C153.491 20.5326 153.279 20.0051 153.225 19.3676H151.14C151.144 19.4163 151.148 19.4646 151.152 19.5127C151.235 20.376 151.511 21.1382 151.979 21.7993C152.478 22.4972 153.163 23.0413 154.031 23.4314C154.905 23.8216 155.939 24.0167 157.134 24.0167C158.415 24.0167 159.504 23.7996 160.399 23.3655C161.3 22.9313 161.984 22.3461 162.452 21.6097C162.924 20.8733 163.16 20.049 163.16 19.1368C163.16 18.3455 163 17.6778 162.679 17.1337C162.359 16.5897 161.952 16.1446 161.458 15.7984C160.969 15.4467 160.456 15.1691 159.919 14.9658C159.387 14.7625 158.904 14.6031 158.469 14.4877L156.775 14.0261C156.466 13.9437 156.127 13.8365 155.758 13.7046C155.388 13.5672 155.036 13.3941 154.699 13.1853C154.362 12.971 154.085 12.7045 153.868 12.3857C153.657 12.0615 153.551 11.6741 153.551 11.2234C153.551 10.6849 153.703 10.2041 154.007 9.78092C154.316 9.35777 154.745 9.02531 155.293 8.78353C155.847 8.54171 156.493 8.42082 157.232 8.42082C158.241 8.42082 159.094 8.65165 159.789 9.11323C160.483 9.57484 160.88 10.2233 160.978 11.0586H162.932C162.93 11.0099 162.928 10.9616 162.925 10.9135C162.874 10.1202 162.616 9.4074 162.15 8.77527ZM172.583 10.9135H174.792V23.865H172.583V21.9218C172.281 22.4673 171.857 22.9383 171.312 23.3349L171.311 23.3354C170.663 23.8018 169.85 24.0299 168.883 24.0299C168.08 24.0299 167.36 23.8518 166.728 23.4919L166.727 23.4914C166.092 23.124 165.596 22.5738 165.237 21.8477L165.237 21.8473C164.876 21.1125 164.7 20.1956 164.7 19.1038V10.9135H166.909V18.9719C166.909 19.8668 167.155 20.5645 167.635 21.0814C168.122 21.5999 168.74 21.8603 169.502 21.8603C169.954 21.8603 170.419 21.7433 170.896 21.5044L170.897 21.5041C171.371 21.2691 171.771 20.9081 172.094 20.4164L172.095 20.4155C172.417 19.9344 172.583 19.3138 172.583 18.5433V10.9135ZM167.531 21.1811C167.021 20.6316 166.766 19.8952 166.766 18.9719V11.0586H164.844V19.1038C164.844 20.1809 165.017 21.0739 165.365 21.7828C165.712 22.4862 166.19 23.0138 166.798 23.3655C167.406 23.7117 168.101 23.8848 168.883 23.8848C169.828 23.8848 170.609 23.6622 171.228 23.2171C171.838 22.7731 172.29 22.2357 172.583 21.605C172.588 21.5956 172.592 21.5862 172.596 21.5767H172.727V23.7199H174.649V11.0586H172.727V18.5433C172.727 19.3346 172.556 19.9858 172.214 20.4969C171.877 21.008 171.459 21.3871 170.96 21.6344C170.465 21.8817 169.98 22.0054 169.502 22.0054C168.704 22.0054 168.047 21.7306 167.531 21.1811ZM176.649 23.865V10.9135H178.858V23.865H176.649ZM176.703 8.66666L176.702 8.66565C176.408 8.38089 176.258 8.03299 176.258 7.62951C176.258 7.22603 176.408 6.87809 176.702 6.59333L176.703 6.59232C177.001 6.30861 177.359 6.16553 177.77 6.16553C178.181 6.16553 178.536 6.30854 178.83 6.59288C179.128 6.87725 179.281 7.22526 179.281 7.62951C179.281 8.03372 179.128 8.38176 178.83 8.66614C178.536 8.95048 178.181 9.09345 177.77 9.09345C177.359 9.09345 177.001 8.95041 176.703 8.66666ZM178.731 8.56096C179.002 8.30266 179.138 7.99218 179.138 7.62951C179.138 7.2668 179.002 6.95632 178.731 6.69802C178.465 6.43975 178.145 6.3106 177.77 6.3106C177.395 6.3106 177.072 6.43975 176.801 6.69802C176.535 6.95632 176.402 7.2668 176.402 7.62951C176.402 7.99218 176.535 8.30266 176.801 8.56096C177.072 8.81923 177.395 8.94838 177.77 8.94838C178.145 8.94838 178.465 8.81923 178.731 8.56096ZM176.793 23.7199H178.714V11.0586H176.793V23.7199Z" fill="white"/>
<path fill-rule="evenodd" clip-rule="evenodd" d="M143.215 11.6777L143.214 11.679C144.343 13.1113 145.017 14.9254 145.017 16.8986C145.017 18.9011 144.323 20.7398 143.164 22.1819L143.064 22.3061L143.037 22.1482C143.015 22.0141 142.988 21.8786 142.958 21.742C142.378 19.1624 140.488 16.9504 137.378 15.1594C135.277 13.9533 134.075 12.5009 133.76 10.8508C133.556 9.78383 133.707 8.71206 134 7.79404C134.293 6.87634 134.729 6.10746 135.099 5.64455L135.099 5.64428L136.309 4.14673C136.521 3.88409 136.918 3.88409 137.13 4.14673L143.215 11.6777ZM145.128 10.1816L145.129 10.181L137.019 0.143735C136.864 -0.0479118 136.574 -0.0479118 136.42 0.143735L128.31 10.1811L128.31 10.1816L128.284 10.2148C126.791 12.0893 125.898 14.4714 125.898 17.0646C125.898 23.1039 130.743 28 136.719 28C142.696 28 147.54 23.1039 147.54 17.0646C147.54 14.4714 146.647 12.0893 145.155 10.2148L145.128 10.1816ZM130.25 11.6454L130.251 11.645L130.976 10.7472L130.998 10.9129C131.015 11.0443 131.036 11.1762 131.061 11.3087C131.531 13.8014 133.207 15.8798 136.01 17.4895C138.447 18.8932 139.866 20.5073 140.274 22.2776C140.445 23.0165 140.475 23.7433 140.401 24.3789L140.397 24.4182L140.362 24.4356C139.262 24.9794 138.026 25.2847 136.719 25.2847C132.136 25.2847 128.421 21.5302 128.421 16.8986C128.421 14.9101 129.106 13.0829 130.25 11.6454Z" fill="white"/>
<path fill-rule="evenodd" clip-rule="evenodd" d="M143.215 11.6777L143.214 11.679C144.343 13.1113 145.017 14.9254 145.017 16.8986C145.017 18.9011 144.323 20.7398 143.164 22.1819L143.064 22.3061L143.037 22.1482C143.015 22.0141 142.988 21.8786 142.958 21.742C142.378 19.1624 140.488 16.9504 137.378 15.1594C135.277 13.9533 134.075 12.5009 133.76 10.8508C133.556 9.78383 133.707 8.71206 134 7.79404C134.293 6.87634 134.729 6.10746 135.099 5.64455L135.099 5.64428L136.309 4.14673C136.521 3.88409 136.918 3.88409 137.13 4.14673L143.215 11.6777ZM145.128 10.1816L145.129 10.181L137.019 0.143735C136.864 -0.0479118 136.574 -0.0479118 136.42 0.143735L128.31 10.1811L128.31 10.1816L128.284 10.2148C126.791 12.0893 125.898 14.4714 125.898 17.0646C125.898 23.1039 130.743 28 136.719 28C142.696 28 147.54 23.1039 147.54 17.0646C147.54 14.4714 146.647 12.0893 145.155 10.2148L145.128 10.1816ZM130.25 11.6454L130.251 11.645L130.976 10.7472L130.998 10.9129C131.015 11.0443 131.036 11.1762 131.061 11.3087C131.531 13.8014 133.207 15.8798 136.01 17.4895C138.447 18.8932 139.866 20.5073 140.274 22.2776C140.445 23.0165 140.475 23.7433 140.401 24.3789L140.397 24.4182L140.362 24.4356C139.262 24.9794 138.026 25.2847 136.719 25.2847C132.136 25.2847 128.421 21.5302 128.421 16.8986C128.421 14.9101 129.106 13.0829 130.25 11.6454Z" fill="white"/>
<path d="M119.896 20.6063L118.236 18.3064L116.576 20.6063H114.261L117.078 16.7986L114.413 13.1584H116.759L118.282 15.2755L119.789 13.1584H122.089L119.424 16.7834L122.242 20.6063H119.896Z" fill="white"/>
<path d="M6.23068 24.9997H0L6.44558 7H13.2731L19.7187 24.9997H13.4641L12.557 22.4454H7.13795L6.23068 24.9997ZM8.21213 18.4825H11.5066L9.85945 13.8988L8.21213 18.4825Z" fill="white"/>
<path d="M27.4047 19.2702H32.8477V24.9998H21.2456V7H27.4047V19.2702Z" fill="white"/>
<path d="M41.203 19.2702H46.6459V24.9998H35.0439V7H41.203V19.2702Z" fill="white"/>
<path d="M50.1756 15.9363C50.1756 15.3122 50.3606 14.7021 50.7074 14.1832C51.0541 13.6643 51.5469 13.2598 52.1235 13.021C52.7001 12.7822 53.3345 12.7197 53.9466 12.8415C54.5587 12.9632 55.121 13.2637 55.5623 13.705C56.0036 14.1463 56.3041 14.7086 56.4258 15.3207C56.5476 15.9328 56.4851 16.5672 56.2463 17.1438C56.0075 17.7204 55.603 18.2132 55.0841 18.5599C54.5652 18.9067 53.9551 19.0917 53.331 19.0917C52.9151 19.0974 52.5022 19.0197 52.1168 18.8631C51.7314 18.7065 51.3813 18.4743 51.0871 18.1802C50.793 17.886 50.5608 17.5359 50.4042 17.1505C50.2476 16.7651 50.1699 16.3522 50.1756 15.9363Z" fill="white"/>
<path d="M64.7772 24.9997H58.5459L64.9916 7H71.8189L78.2645 24.9997H72.01L71.1029 22.4454H65.6839L64.7772 24.9997ZM66.7587 18.4825H70.053L68.4058 13.8988L66.7587 18.4825Z" fill="white"/>
<path d="M85.7802 24.9997H79.6211V7H88.6209C90.8173 7 92.3213 7.64454 93.3715 8.69497C94.4935 9.81698 95.0904 11.273 95.0904 12.9919C95.0904 15.212 93.849 17.1697 91.8438 17.8858L96.3079 24.9997H89.4088L85.7802 18.9362V24.9997ZM88.9313 13.4693C88.9313 12.4905 88.2868 11.8222 87.0455 11.8222H85.7802V15.1166H87.0455C88.2868 15.1166 88.9313 14.448 88.9313 13.4693V13.4693Z" fill="white"/>
<path d="M96.5981 7H109.823V12.7296H106.29V25H100.131V12.7293H96.5981V7Z" fill="white"/>
</svg>
