<svg width="21" height="21" viewBox="0 0 21 21" fill="none" xmlns="http://www.w3.org/2000/svg">
<path fill-rule="evenodd" clip-rule="evenodd" d="M0 5C0 2.23858 2.23858 0 5 0H15.0482C17.8096 0 20.0482 2.23858 20.0482 5V15.0482C20.0482 17.8096 17.8096 20.0482 15.0482 20.0482H5C2.23858 20.0482 0 17.8096 0 15.0482V5ZM5 2H15.0482C16.7051 2 18.0482 3.34315 18.0482 5V15.0482C18.0482 16.7051 16.7051 18.0482 15.0482 18.0482H5C3.34315 18.0482 2 16.7051 2 15.0482V13.3654H5.35342C7.01028 13.3654 8.35342 12.0222 8.35342 10.3654V9.68262C8.35342 8.02576 7.01028 6.68262 5.35342 6.68262H2V5C2 3.34315 3.34315 2 5 2ZM6.35342 9.68262C6.35342 9.13033 5.90571 8.68262 5.35342 8.68262H2V11.3654H5.35342C5.90571 11.3654 6.35342 10.9176 6.35342 10.3654V9.68262Z" fill="white"/>
</svg>
