<svg xmlns="http://www.w3.org/2000/svg" xmlns:xlink="http://www.w3.org/1999/xlink" xmlns:serif="http://www.serif.com/" viewBox="0 0 101 101" version="1.1" xml:space="preserve" style="" x="0px" y="0px" fill-rule="evenodd" clip-rule="evenodd" stroke-linejoin="round" stroke-miterlimit="1.41421"><rect serif:id="Page 10" x="0.5" y="0" width="100" height="100" style="" fill="none"/><path d="M34.704,38.209c3.917,-10.065 13.123,-16.868 23.474,-17.996l0.133,-0.014c3.411,-0.395 6.933,-0.149 10.432,0.788l1.311,0.423c-2.761,1.998 -5.009,4.748 -6.399,8.045c-1.378,-0.179 -1.382,-0.173 0,0c-0.378,0.83 -0.674,1.687 -0.912,2.574c-0.194,0.725 -0.344,1.451 -0.452,2.175c10.065,3.917 16.868,13.123 17.996,23.474l0.014,0.133c0.395,3.411 0.149,6.933 -0.788,10.432l-0.423,1.311c-1.998,-2.761 -4.748,-5.009 -8.045,-6.399c0.179,-1.378 0.173,-1.382 0,0c-0.83,-0.378 -1.687,-0.674 -2.574,-0.912c-0.725,-0.194 -1.451,-0.344 -2.175,-0.452c-3.917,10.065 -13.123,16.868 -23.474,17.996l-0.133,0.014c-3.411,0.395 -6.933,0.149 -10.432,-0.788l-1.311,-0.423c2.761,-1.998 5.009,-4.748 6.399,-8.045c1.378,0.179 1.382,0.173 0,0c0.378,-0.83 0.674,-1.687 0.912,-2.574c0.194,-0.725 0.344,-1.451 0.452,-2.175c-10.065,-3.917 -16.868,-13.123 -17.996,-23.474l-0.014,-0.133c-0.395,-3.411 -0.149,-6.933 0.788,-10.432l0.423,-1.311c1.998,2.761 4.748,5.009 8.045,6.399c-0.179,1.378 -0.173,1.382 0,0c0.83,0.378 1.687,0.674 2.574,0.912c0.725,0.194 1.451,0.344 2.175,0.452Zm15.796,4.853c3.829,0 6.938,3.109 6.938,6.938c0,3.829 -3.109,6.938 -6.938,6.938c-3.829,0 -6.938,-3.109 -6.938,-6.938c0,-3.829 3.109,-6.938 6.938,-6.938Z" fill="#FFFFFF"/></svg>
