<svg width="107" height="41" viewBox="0 0 107 41" fill="none" xmlns="http://www.w3.org/2000/svg">
<g clip-path="url(#clip0_1_8)">
<rect width="40" height="40" fill="#83CBFF"/>
<rect width="20" height="10" fill="#0F9AFF"/>
<path d="M33.1335 21.6676C33.0483 20.7301 32.669 20.0014 31.9957 19.4815C31.331 18.9531 30.3807 18.6889 29.1449 18.6889C28.3267 18.6889 27.6449 18.7955 27.0994 19.0085C26.554 19.2216 26.1449 19.5156 25.8722 19.8906C25.5994 20.2571 25.4588 20.679 25.4503 21.1562C25.4332 21.5483 25.5099 21.8935 25.6804 22.1918C25.8594 22.4901 26.1151 22.7543 26.4474 22.9844C26.7884 23.206 27.1974 23.402 27.6747 23.5724C28.152 23.7429 28.6889 23.892 29.2855 24.0199L31.5355 24.5312C32.831 24.8125 33.973 25.1875 34.9616 25.6562C35.9588 26.125 36.794 26.6832 37.4673 27.331C38.1491 27.9787 38.6648 28.7244 39.0142 29.5682C39.3636 30.4119 39.5426 31.358 39.5511 32.4062C39.5426 34.0597 39.125 35.4787 38.2983 36.6634C37.4716 37.848 36.2827 38.7557 34.7315 39.3864C33.1889 40.017 31.3267 40.3324 29.1449 40.3324C26.9545 40.3324 25.0455 40.0043 23.4176 39.348C21.7898 38.6918 20.5241 37.6946 19.6207 36.3565C18.7173 35.0185 18.2528 33.3267 18.2273 31.2812H24.2869C24.3381 32.125 24.5639 32.8281 24.9645 33.3906C25.3651 33.9531 25.9148 34.3793 26.6136 34.669C27.321 34.9588 28.1392 35.1037 29.0682 35.1037C29.9205 35.1037 30.6449 34.9886 31.2415 34.7585C31.8466 34.5284 32.3111 34.2088 32.6349 33.7997C32.9588 33.3906 33.125 32.9219 33.1335 32.3935C33.125 31.8991 32.9716 31.4773 32.6733 31.1278C32.375 30.7699 31.9148 30.4631 31.2926 30.2074C30.679 29.9432 29.8949 29.7003 28.9403 29.4787L26.2045 28.8395C23.9375 28.3196 22.152 27.4801 20.848 26.321C19.544 25.1534 18.8963 23.5767 18.9048 21.5909C18.8963 19.9716 19.331 18.5526 20.2088 17.3338C21.0866 16.1151 22.3011 15.1648 23.8523 14.483C25.4034 13.8011 27.1719 13.4602 29.1577 13.4602C31.1861 13.4602 32.946 13.8054 34.4375 14.4957C35.9375 15.1776 37.1009 16.1364 37.9276 17.3722C38.7543 18.608 39.1761 20.0398 39.1932 21.6676H33.1335Z" fill="white"/>
<path d="M53.6162 31.5241V20.3636H59.8548V40H53.8974V36.3438H53.6929C53.2582 37.5455 52.5168 38.5 51.4685 39.2074C50.4287 39.9062 49.1716 40.2557 47.6972 40.2557C46.3591 40.2557 45.183 39.9489 44.1688 39.3352C43.1545 38.7216 42.3662 37.8651 41.8037 36.7656C41.2412 35.6577 40.9557 34.3622 40.9472 32.8793V20.3636H47.1986V31.652C47.2071 32.7173 47.4884 33.5568 48.0423 34.1705C48.5963 34.7841 49.3506 35.0909 50.3051 35.0909C50.9273 35.0909 51.4855 34.9545 51.9798 34.6818C52.4827 34.4006 52.879 33.9957 53.1688 33.4673C53.467 32.9304 53.6162 32.2827 53.6162 31.5241ZM68.4387 13.8182L73.22 22.0895H73.4245L78.2569 13.8182H85.3393L77.4387 26.9091L85.595 40H78.3336L73.4245 31.6392H73.22L68.3109 40H61.1006L69.2185 26.9091L61.3052 13.8182H68.4387ZM94.9587 40.3707C92.8962 40.3707 91.1234 39.9489 89.6405 39.1051C88.166 38.2528 87.0283 37.0682 86.2271 35.5511C85.4345 34.0256 85.0382 32.2571 85.0382 30.2457C85.0382 28.2259 85.4345 26.4574 86.2271 24.9403C87.0283 23.4148 88.166 22.2301 89.6405 21.3864C91.1234 20.5341 92.8962 20.108 94.9587 20.108C97.0212 20.108 98.7896 20.5341 100.264 21.3864C101.747 22.2301 102.885 23.4148 103.677 24.9403C104.479 26.4574 104.879 28.2259 104.879 30.2457C104.879 32.2571 104.479 34.0256 103.677 35.5511C102.885 37.0682 101.747 38.2528 100.264 39.1051C98.7896 39.9489 97.0212 40.3707 94.9587 40.3707ZM94.997 35.6534C95.747 35.6534 96.382 35.4233 96.9018 34.9631C97.4217 34.5028 97.818 33.8636 98.0908 33.0455C98.372 32.2273 98.5126 31.2812 98.5126 30.2074C98.5126 29.1165 98.372 28.1619 98.0908 27.3438C97.818 26.5256 97.4217 25.8864 96.9018 25.4261C96.382 24.9659 95.747 24.7358 94.997 24.7358C94.2214 24.7358 93.5652 24.9659 93.0283 25.4261C92.4999 25.8864 92.095 26.5256 91.8138 27.3438C91.541 28.1619 91.4047 29.1165 91.4047 30.2074C91.4047 31.2812 91.541 32.2273 91.8138 33.0455C92.095 33.8636 92.4999 34.5028 93.0283 34.9631C93.5652 35.4233 94.2214 35.6534 94.997 35.6534Z" fill="black"/>
</g>
<defs>
<clipPath id="clip0_1_8">
<rect width="107" height="41" fill="white"/>
</clipPath>
</defs>
</svg>
